<?xml version="1.0" encoding="UTF-8"?>
<svg id="Layer_2" data-name="Layer 2" xmlns="http://www.w3.org/2000/svg" viewBox="0 0 348.49 420.37">
  <defs>
    <style>
      .cls-1 {
        fill: #f56565;
      }

      .cls-1, .cls-2 {
        stroke-width: 0px;
      }

      .cls-3 {
        fill: #0ea5ec;
        stroke: #0ea5ec;
        stroke-linecap: round;
        stroke-linejoin: bevel;
        stroke-width: .75px;
      }

      .cls-2 {
        fill: #c6f6d5;
      }
    </style>
  </defs>
  <g id="Layer_1-2" data-name="Layer 1">
    <path class="cls-3" d="M326.26,188.82c7.08,48.76,14.2,97.52,21.22,146.29,4.12,24.97-12.32,48.65-37.22,53.39-71.17,10.32-142.32,20.75-213.5,30.99-26.4,4.11-50.66-17.45-53.31-43.94C6.14-3.43-95.4,50.33,250.84.95c27.65-4.34,51.03,16.32,54.22,42.59,7,48.44,14.04,96.87,21.07,145.3l.14-.02ZM101.13,119.93l.08-.08c-8.47,11.22-17.41-5.78-27.47,5-5.2,5.14-15.56,2.23-17.23-5.37-3.13-21.85-6.26-43.7-9.41-65.54-.13-.89.15-2.07-1.18-2.42-2,.39-4.27-.21-5.88,1.62-13.57,3.09-20.86,15.69-18.54,30.54,13.14,90.76,26.15,180.34,39.36,271.33,8.63-11,20.11-14.43,32.83-16.24,71.84-10.87,145.62-19.84,216.43-32.08,6.44-2.68,9.43-7.49,8.95-14.45.92-.48.79-1.29.69-2.11-9.73-81.37-23.61-162.99-34.74-244.44-.59-5.97-3.4-11.56-7.27-16.07-4.32-7.73-14.79-9.44-22.99-8.45-52.54,7.54-105.05,15.23-157.6,22.73-3.25.46-3.55,1.57-3.11,4.44,2.95,19.41,5.66,38.86,8.61,58.27.64,4.18.87,8.2-.66,12.2l.06-.09c-.3.41-.6.81-.9,1.22ZM324.68,319.3c-6.71,5.98-13.91,8.45-21.81,9.53-70.51,9.83-141.02,19.71-211.43,30.2-15.45,1.34-22.07,12.21-18.23,25.77,1.73,11.83,9.08,17.37,20.87,15.69,27.66-3.96,55.32-7.97,82.98-11.98,42.64-6.19,85.28-12.33,127.9-18.63,27.31-4.16,23.99-29.44,19.72-50.57ZM81.39,74.73h.02c-.84-5.76-1.68-11.51-2.5-17.27-1.53-10.6-1.5-10.41-12.09-9.12-3.7.45-3.98,1.78-3.46,5.01,2.2,13.78,4.12,27.6,6.11,41.41,1.59,11.07,1.56,11.01,12.77,8.6,2.46-.53,3.22-1.4,2.79-3.99-1.36-8.19-2.45-16.43-3.64-24.65Z"/>
    <path class="cls-2" d="M163.41,121.15c0,8.77,0,17.06,0,25.35,0,16.22-.25,32.44.2,48.65.1,3.58,1.82,7.93,4.28,10.49,15.57,16.12,31.56,31.84,47.4,47.7,1.65,1.66,3.21,3.41,4.77,5.08-21.57,24.54-62.58,30.79-93.67,14.56-33.22-17.35-49.77-54.33-40.86-91.28,8.37-34.68,40.92-60.4,77.87-60.54Z"/>
    <path class="cls-1" d="M232.47,251.16c-18.45-18.59-36.89-37.16-55.86-56.27,22.44-12.06,45.57-24.49,68.66-36.9,16.69,22.62,13.88,69.64-12.8,93.16Z"/>
    <path class="cls-2" d="M183.7,82.78c31.5,1.41,54.2,15.55,70.56,42.52-23.48,12.6-46.58,24.99-70.56,37.86v-80.38Z"/>
  </g>
</svg>